<?xml version="1.0" encoding="utf-8"?>
<!-- Generator: Adobe Illustrator 22.1.0, SVG Export Plug-In . SVG Version: 6.00 Build 0)  -->
<svg version="1.1" id="Layer_1" xmlns="http://www.w3.org/2000/svg" xmlns:xlink="http://www.w3.org/1999/xlink" x="0px" y="0px"
	 viewBox="0 0 206 26" style="enable-background:new 0 0 206 26;" xml:space="preserve">
<style type="text/css">
	.st0{fill:#FFFFFF;}
</style>
<g>
	<path class="st0" d="M150,20.7v2.2c0,0.4-0.3,0.6-0.6,0.6H140h-2.3c-0.4,0-0.6-0.3-0.6-0.6V4.2c0-0.4,0.3-0.6,0.6-0.6h3
		c0.4,0,0.6,0.3,0.6,0.6v15.9h8C149.7,20.1,150,20.4,150,20.7z"/>
	<path class="st0" d="M186.9,14.9c0.5,0.8,0.8,1.7,0.8,2.7c0,1.9-0.6,3.4-1.9,4.4c-1.2,1-3.1,1.5-5.4,1.5h-6.1h-1
		c-0.4,0-0.6-0.3-0.6-0.6V4.2c0-0.4,0.3-0.6,0.6-0.6h6.4c2.4,0,4.3,0.5,5.6,1.4s2,2.3,2,4.1c0,1-0.2,1.8-0.7,2.5s-1.2,1.3-2.1,1.7
		C185.5,13.6,186.4,14.1,186.9,14.9z M177,7.1V12h2.7c1.1,0,1.9-0.2,2.4-0.6c0.5-0.4,0.8-1,0.8-1.8c0-0.9-0.3-1.5-0.8-1.9
		s-1.3-0.6-2.5-0.6C179.6,7.1,177,7.1,177,7.1z M182.6,19.4c0.5-0.5,0.8-1,0.8-1.8c0-1.8-0.9-2.7-2.8-2.7H177v5.2h3.4
		C181.4,20.1,182.1,19.9,182.6,19.4z"/>
	<path class="st0" d="M194.3,13.8c-1-0.5-1.8-1.2-2.3-2c-0.6-0.8-0.9-1.8-0.9-2.9s0.3-2.1,1-2.9c0.6-0.8,1.5-1.5,2.6-2
		s2.4-0.7,3.9-0.7s2.7,0.3,3.9,0.8c1.1,0.5,2,1.2,2.6,2.2c0.5,0.7,0.8,1.6,0.9,2.5c0,0.4-0.3,0.7-0.6,0.7h-3c-0.3,0-0.6-0.2-0.6-0.5
		c-0.1-0.6-0.3-1.1-0.8-1.5c-0.5-0.5-1.3-0.7-2.4-0.7c-0.7,0-1.2,0.1-1.7,0.3c-0.5,0.2-0.8,0.5-1,0.8s-0.3,0.7-0.3,1.1
		c0,0.6,0.3,1.1,0.9,1.6c0.6,0.4,1.6,0.8,2.9,1.3c2.2,0.7,3.9,1.5,5,2.6c1.1,1,1.6,2.3,1.6,4c0,1.2-0.3,2.2-0.9,3
		c-0.6,0.8-1.4,1.5-2.5,1.9s-2.4,0.7-3.8,0.7c-1.4,0-2.7-0.2-4-0.7c-1.2-0.5-2.2-1.2-3-2.2c-0.6-0.8-1-1.8-1.1-3
		c0-0.4,0.3-0.7,0.6-0.7h3c0.3,0,0.6,0.3,0.7,0.6c0.1,0.8,0.4,1.5,1,1.9c0.7,0.5,1.6,0.8,2.8,0.8c1,0,1.7-0.2,2.2-0.6
		s0.7-0.9,0.7-1.6c0-0.5-0.1-0.9-0.3-1.2c-0.2-0.3-0.6-0.6-1.1-0.9S195.3,14.3,194.3,13.8z"/>
	<path class="st0" d="M170,22.7L163,4c-0.1-0.3-0.3-0.4-0.6-0.4h-0.7h-2.5c-0.3,0-0.5,0.2-0.6,0.4l-6.9,18.7
		c-0.2,0.4,0.2,0.9,0.6,0.9h17C169.9,23.6,170.2,23.1,170,22.7z M164,20.1h-6.1c-0.6,0-1.1-0.6-0.8-1.2l2.9-6.5v-3
		c0-0.2,0.2-0.4,0.4-0.4h1.2c0.2,0,0.4,0.2,0.4,0.4v3l2.9,6.5C165,19.5,164.6,20.1,164,20.1z"/>
</g>
<path class="st0" d="M17,26H2.2c-1.5,0-2.6-1.5-2-3l7-15.7V1c0-0.6,0.4-1,1-1H11c0.5,0,1,0.4,1,1v6.3L19,23C19.6,24.5,18.5,26,17,26
	z"/>
<g>
	<path class="st0" d="M33.8,7.7L28,23.3c-0.1,0.2-0.2,0.3-0.4,0.3h-1.3c-0.2,0-0.3-0.1-0.4-0.3L20.1,7.7c-0.1-0.3,0.1-0.6,0.4-0.6
		h1.8L27,20.7l4.7-13.6h1.8C33.7,7.1,33.9,7.4,33.8,7.7z"/>
	<path class="st0" d="M46.9,22.2v0.9c0,0.2-0.2,0.4-0.4,0.4h-8.3h-1.3c-0.2,0-0.4-0.2-0.4-0.4V7.5c0-0.2,0.2-0.4,0.4-0.4h1.8h7.7
		c0.2,0,0.4,0.2,0.4,0.4v0.9c0,0.2-0.2,0.4-0.4,0.4h-7.7v5.3h6.7c0.2,0,0.4,0.2,0.4,0.4v0.9c0,0.2-0.2,0.4-0.4,0.4h-6.7v5.9h7.8
		C46.7,21.8,46.9,22,46.9,22.2z"/>
	<path class="st0" d="M61.7,23.4v0.1h-2.1c-0.2,0-0.3-0.1-0.4-0.2l-3.5-6.5H52V23c0,0.2-0.2,0.4-0.4,0.4h-1.3
		c-0.2,0-0.4-0.2-0.4-0.4V7.5c0-0.2,0.2-0.4,0.4-0.4h5c1.9,0,3.3,0.4,4.3,1.3c1,0.8,1.5,2.1,1.5,3.7c0,1-0.3,1.9-0.8,2.7
		c-0.6,0.8-1.3,1.3-2.3,1.7L61.7,23.4z M55.3,15.2c0.8,0,1.4-0.2,1.9-0.5s0.9-0.6,1.2-1.1s0.4-1,0.4-1.6c0-1-0.3-1.8-0.9-2.3
		c-0.6-0.6-1.5-0.8-2.7-0.8H52v6.3C52,15.2,55.3,15.2,55.3,15.2z"/>
	<path class="st0" d="M74.6,8.9h-4.9v14.3c0,0.2-0.2,0.4-0.4,0.4H68c-0.2,0-0.4-0.2-0.4-0.4V8.9h-4.8c-0.2,0-0.4-0.2-0.4-0.4v-1
		c0-0.2,0.2-0.4,0.4-0.4h7h4.9c0.2,0,0.4,0.2,0.4,0.4v0.9C75,8.7,74.8,8.9,74.6,8.9z"/>
	<path class="st0" d="M118.3,8.9h-4.9v14.3c0,0.2-0.2,0.4-0.4,0.4h-1.3c-0.2,0-0.4-0.2-0.4-0.4V8.9h-4.8c-0.2,0-0.4-0.2-0.4-0.4v-1
		c0-0.2,0.2-0.4,0.4-0.4h7h4.9c0.2,0,0.4,0.2,0.4,0.4v0.9C118.8,8.7,118.6,8.9,118.3,8.9z"/>
	<path class="st0" d="M130.9,7.1h1.8c0.3,0,0.5,0.4,0.4,0.6l-5.3,9.7v5.7c0,0.2-0.2,0.4-0.4,0.4h-1.3c-0.2,0-0.4-0.2-0.4-0.4v-5.7
		l-5.3-9.7c-0.2-0.3,0.1-0.6,0.4-0.6h1.8l4.3,8.3L130.9,7.1z"/>
	<path class="st0" d="M77.8,23.1V7.5c0-0.2,0.2-0.4,0.4-0.4h1.3c0.2,0,0.4,0.2,0.4,0.4v15.6c0,0.2-0.2,0.4-0.4,0.4h-1.3
		C78,23.5,77.8,23.3,77.8,23.1z"/>
	<path class="st0" d="M101,23.1V7.5c0-0.2,0.2-0.4,0.4-0.4h1.3c0.2,0,0.4,0.2,0.4,0.4v15.6c0,0.2-0.2,0.4-0.4,0.4h-1.3
		C101.2,23.5,101,23.3,101,23.1z"/>
	<path class="st0" d="M96.8,23.1c0,0.2-0.2,0.4-0.4,0.4h-1.5c-0.1,0-0.3-0.1-0.4-0.2l-8.2-12.5v12.3c0,0.2-0.2,0.4-0.4,0.4h-1.3
		c-0.2,0-0.4-0.2-0.4-0.4V7.5c0-0.2,0.2-0.4,0.4-0.4h1.5c0.1,0,0.3,0.1,0.4,0.2l8.2,12.6V7.5c0-0.2,0.2-0.4,0.4-0.4h1.3
		c0.2,0,0.4,0.2,0.4,0.4V23.1z"/>
</g>
</svg>
